<?xml version="1.0" standalone="no"?>
<!DOCTYPE svg PUBLIC "-//W3C//DTD SVG 20010904//EN"
 "http://www.w3.org/TR/2001/REC-SVG-20010904/DTD/svg10.dtd">
<svg version="1.0" xmlns="http://www.w3.org/2000/svg"
 width="300.000000pt" height="340.000000pt" viewBox="0 0 300.000000 340.000000"
 preserveAspectRatio="xMidYMid meet">
<metadata>
Created by potrace 1.10, written by Peter Selinger 2001-2011
</metadata>
<g transform="translate(0.000000,340.000000) scale(0.100000,-0.100000)"
fill="#ffff99" stroke="none">
<path d="M1306 3246 c-22 -8 -51 -24 -65 -35 -14 -11 -40 -28 -58 -37 -51 -25
-175 -170 -216 -250 -42 -83 -57 -158 -48 -241 8 -64 12 -75 41 -99 23 -19 30
-33 26 -48 -3 -12 -1 -39 4 -60 7 -31 5 -46 -8 -68 -16 -27 -15 -29 6 -44 13
-9 22 -25 22 -42 0 -21 -2 -24 -10 -12 -13 20 -13 4 0 -20 6 -10 6 -21 2 -24
-16 -10 -33 12 -35 45 -1 19 -6 39 -9 45 -4 6 -10 26 -13 44 -3 18 -11 42 -16
52 -14 27 -2 88 17 88 12 0 12 4 -2 25 -9 14 -20 23 -24 20 -14 -9 -23 -141
-10 -164 6 -12 19 -54 29 -94 l19 -72 38 -1 c31 0 39 -5 45 -25 4 -13 18 -49
32 -79 13 -30 27 -83 31 -118 6 -53 4 -67 -12 -90 -11 -15 -21 -31 -23 -37 -2
-5 -21 -35 -42 -66 -37 -55 -41 -58 -147 -98 -59 -23 -139 -52 -177 -65 -86
-29 -164 -69 -225 -113 -38 -27 -59 -56 -103 -137 -75 -140 -97 -203 -172
-491 -82 -311 -106 -431 -127 -615 -28 -252 -31 -320 -14 -320 16 0 27 53 32
155 1 28 8 95 14 150 7 55 13 114 14 130 1 17 8 59 16 95 8 36 16 81 19 100 3
19 9 40 13 45 5 6 11 28 14 50 16 107 46 192 46 130 0 -49 8 -23 15 50 15 161
87 391 156 505 5 8 16 29 23 45 24 52 173 161 246 180 8 3 57 15 108 29 96 25
132 41 71 31 -25 -5 -20 -1 21 15 30 11 59 18 65 16 5 -2 4 -5 -2 -5 -7 -1
-13 -11 -13 -23 1 -19 4 -17 21 14 12 23 29 40 45 44 14 4 30 16 35 28 5 11
20 35 33 52 l23 32 31 -32 c17 -17 34 -45 38 -61 4 -17 14 -40 22 -53 13 -19
13 -27 2 -47 -7 -14 -10 -28 -7 -32 4 -3 7 1 7 10 0 9 7 17 15 17 22 0 19 19
-19 97 -50 103 -62 148 -47 176 37 68 -1 234 -70 312 -29 33 -44 183 -30 307
6 57 13 114 16 128 30 150 33 176 23 187 -6 7 -6 13 -1 13 5 0 15 16 21 35 14
37 116 130 167 150 17 7 39 16 50 20 18 7 17 9 -10 14 -16 4 -32 4 -35 1 -3
-3 -23 -14 -45 -25 -63 -31 -106 -61 -97 -69 4 -4 0 -6 -8 -4 -8 2 -14 -1 -15
-7 -1 -15 -15 -35 -25 -35 -19 0 -5 49 17 61 13 7 23 18 23 26 0 7 4 13 9 13
9 0 40 24 84 65 37 34 96 65 138 71 25 4 36 10 28 14 -7 5 16 10 50 12 35 1
68 0 75 -4 6 -4 7 -8 1 -8 -12 -1 86 -50 100 -50 6 0 -2 8 -17 18 -16 11 -24
22 -20 30 10 15 113 -35 147 -72 14 -15 29 -25 33 -22 5 3 9 -10 9 -29 0 -41
-9 -45 -25 -9 -7 15 -19 24 -30 23 -9 -1 -30 3 -45 9 -16 7 -34 12 -40 12 -9
0 -9 2 0 8 6 4 -14 8 -45 9 -32 1 -73 2 -92 3 -42 3 -62 -2 -72 -15 -4 -6 -8
-2 -8 8 0 22 -7 21 -54 -2 l-38 -20 36 -7 c20 -3 57 -3 84 1 148 24 293 -30
358 -134 16 -25 28 -52 27 -58 0 -7 2 -13 6 -13 3 0 5 -26 5 -57 -1 -32 5 -85
12 -118 8 -33 19 -80 24 -105 7 -29 7 -100 1 -203 l-9 -157 -37 -41 c-20 -23
-45 -59 -54 -80 -10 -21 -20 -37 -23 -34 -3 3 -11 -2 -19 -12 -12 -15 -12 -16
3 -10 15 5 17 1 11 -38 -8 -61 11 -58 25 4 6 27 27 78 47 114 33 60 39 66 72
69 41 3 41 4 82 115 37 100 42 213 10 213 -12 0 -11 -37 1 -61 13 -23 2 -25
-14 -3 -10 12 -11 2 -8 -50 3 -39 -1 -79 -8 -99 -31 -78 -44 -107 -52 -107 -5
0 -4 9 2 19 5 11 10 30 10 43 0 18 -2 20 -10 8 -8 -12 -10 -11 -10 8 0 14 6
22 16 22 13 0 15 6 10 28 -4 15 -10 53 -13 85 -6 64 5 86 56 106 21 9 31 25
46 74 33 107 17 203 -49 295 -23 31 -42 45 -73 54 -27 8 -38 15 -30 20 8 5 5
8 -10 8 -43 0 -51 9 -46 54 4 35 1 47 -23 75 -16 19 -46 43 -69 53 -22 11 -29
17 -17 14 13 -2 21 -2 18 2 -34 33 -302 53 -370 28z m570 -318 c3 -10 10 -16
15 -12 5 3 9 2 8 -3 -4 -21 3 -32 20 -38 32 -10 50 -139 26 -185 -8 -15 -12
-30 -9 -32 6 -7 -17 -59 -34 -77 -12 -12 -15 -12 -23 0 -5 8 -9 25 -9 39 0 14
-13 67 -30 118 -27 84 -36 147 -19 136 4 -2 10 3 13 12 3 8 2 12 -4 9 -11 -7
-11 -6 -15 41 -2 31 -2 31 26 20 16 -6 32 -18 35 -28z m-822 5 c-3 -15 -8 -31
-11 -37 -4 -5 -8 -39 -9 -75 -1 -36 -3 -70 -3 -74 -1 -5 -5 -5 -11 -2 -5 3 -7
0 -5 -7 3 -8 -1 -32 -8 -53 -8 -22 -12 -45 -10 -52 2 -6 -1 -14 -6 -18 -6 -3
-11 0 -11 9 0 8 -4 16 -10 18 -22 7 -10 216 14 241 6 7 13 21 14 32 5 28 17
40 41 42 16 1 19 -3 15 -24z"/>
<path d="M1183 2774 c-2 -7 -12 -10 -21 -7 -9 4 -13 2 -9 -2 4 -5 -3 -15 -15
-22 -21 -13 -20 -13 12 -6 43 10 112 10 165 1 22 -3 34 -4 27 -1 -6 2 -10 9
-7 13 9 15 -30 29 -90 33 -40 3 -58 0 -62 -9z"/>
<path d="M1534 2771 c3 -5 1 -11 -6 -13 -6 -2 -8 -10 -4 -16 4 -7 13 -9 19 -5
7 4 46 6 87 5 42 -1 67 2 57 6 -10 4 -17 12 -15 17 2 6 -29 11 -70 13 -45 2
-71 -1 -68 -7z"/>
<path d="M1173 2659 c-43 -21 -56 -39 -29 -39 8 0 21 7 30 15 17 17 36 20 36
5 0 -17 57 -11 64 6 5 13 9 14 22 4 12 -11 12 -15 2 -21 -10 -7 -10 -9 2 -9 8
0 21 4 28 9 17 10 1 23 -47 40 -47 15 -60 14 -108 -10z"/>
<path d="M1545 2660 c-3 -5 -3 -10 2 -10 4 0 0 -5 -9 -11 -10 -5 -18 -14 -18
-19 0 -17 25 -11 38 10 7 11 17 20 22 20 6 0 10 -9 10 -20 0 -16 7 -20 30 -20
20 0 30 5 30 15 0 21 12 19 33 -5 10 -12 29 -20 49 -20 l33 0 -35 19 c-68 38
-85 43 -132 38 -26 -2 -45 0 -42 5 3 4 3 8 0 8 -3 0 -8 -4 -11 -10z"/>
<path d="M1210 2591 c-65 -5 -71 -7 -42 -14 35 -9 98 -2 122 13 8 5 11 9 5 8
-5 -1 -44 -4 -85 -7z"/>
<path d="M1572 2575 c15 -8 49 -17 75 -20 l48 -5 -50 13 c-27 8 -61 17 -75 21
-24 7 -24 6 2 -9z"/>
<path d="M1324 2422 c11 -12 29 -22 41 -22 13 0 38 -7 57 -15 30 -12 38 -12
54 0 11 7 31 11 45 8 15 -3 29 -1 33 5 10 16 -43 24 -79 11 -29 -11 -40 -10
-74 5 -21 10 -44 15 -51 11 -6 -4 -19 -1 -28 6 -13 11 -12 8 2 -9z"/>
<path d="M1282 2301 l-53 -17 25 -27 c14 -15 30 -27 36 -27 15 0 12 11 -7 25
-15 11 -15 13 6 24 12 7 30 9 39 5 25 -10 52 -12 58 -3 2 5 10 6 17 4 7 -2 38
-6 69 -9 85 -8 110 -16 106 -35 -2 -9 -11 -15 -21 -15 -9 1 -17 -2 -17 -6 0
-10 -118 -11 -162 -1 -24 6 -44 5 -59 -3 -23 -12 -28 -28 -10 -34 7 -2 8 3 4
13 -5 16 -1 16 48 9 30 -5 80 -9 112 -9 61 0 70 -6 35 -23 -23 -10 -23 -11 -2
-11 25 -1 74 35 74 54 0 8 9 17 20 20 23 7 27 35 5 35 -9 0 -26 7 -39 16 -13
8 -64 19 -113 24 -110 12 -107 12 -171 -9z"/>
<path d="M1373 2148 c0 -16 82 -24 92 -8 4 6 -5 10 -22 10 -15 0 -37 3 -49 6
-13 3 -21 1 -21 -8z"/>
<path d="M1264 2001 c3 -4 18 -13 33 -19 16 -5 37 -13 48 -18 58 -21 205 -2
205 27 0 4 -15 2 -34 -6 -41 -18 -166 -11 -210 11 -33 16 -50 18 -42 5z"/>
<path d="M1733 1988 c9 -26 -15 -166 -43 -252 -23 -69 -28 -92 -19 -103 7 -7
9 -16 6 -19 -3 -3 -1 -18 4 -33 17 -42 21 -131 6 -132 -43 -3 -59 -8 -75 -23
-16 -13 -32 -15 -88 -11 -96 8 -99 9 -167 82 -54 57 -101 93 -123 93 -5 0 8
-16 27 -37 25 -27 29 -34 14 -29 -20 6 -20 6 0 -11 11 -10 31 -29 44 -43 22
-22 21 -21 -3 13 -38 53 -20 46 34 -13 37 -40 44 -53 34 -61 -20 -17 -141 102
-156 153 -8 26 -16 37 -25 34 -8 -3 -12 -2 -8 3 3 5 -8 12 -23 16 -16 3 -44
21 -62 40 -36 37 -73 45 -124 26 -34 -14 -81 -94 -68 -118 9 -16 11 -15 17 10
4 15 11 27 16 27 5 0 9 7 9 16 0 16 56 44 87 44 10 0 34 -15 53 -33 19 -17 36
-31 37 -29 10 8 25 -6 78 -74 61 -79 122 -134 148 -134 8 0 17 -9 20 -20 3
-13 13 -20 29 -20 l23 1 -22 12 c-14 8 -19 17 -14 25 9 14 20 15 101 7 30 -3
80 -1 110 6 61 12 130 40 130 52 0 4 7 7 15 7 16 0 51 47 42 56 -3 3 -10 -3
-16 -14 -6 -11 -24 -25 -41 -30 -29 -11 -30 -10 -29 16 1 29 -5 63 -20 127
-10 39 0 88 29 150 5 11 16 46 25 78 9 31 21 55 26 52 5 -3 6 1 3 9 -9 24 12
19 29 -6 28 -43 108 -118 125 -118 24 -1 46 -20 65 -55 10 -18 16 -23 17 -14
0 12 8 15 28 13 21 -3 19 -1 -8 7 -19 7 -29 14 -22 16 12 5 87 -17 149 -44 17
-7 38 -13 47 -13 26 0 140 -51 149 -66 4 -8 14 -14 22 -14 7 0 29 -16 49 -35
20 -19 36 -32 36 -30 0 9 38 -33 50 -55 51 -95 53 -300 4 -470 -51 -174 -48
-167 -87 -253 -15 -31 -27 -65 -27 -75 0 -9 14 11 30 46 17 35 30 68 30 74 0
6 9 27 19 47 40 77 91 315 91 429 0 28 4 52 10 52 5 0 19 -33 31 -72 12 -40
26 -76 33 -80 6 -4 7 -8 2 -8 -5 0 -4 -6 2 -12 5 -7 17 -44 27 -83 9 -38 21
-75 26 -81 5 -6 20 -51 33 -100 13 -49 31 -112 39 -140 8 -29 12 -64 10 -78
-3 -14 -1 -26 4 -26 5 0 9 -8 10 -17 0 -10 8 -45 18 -78 9 -33 19 -69 20 -80
2 -11 13 -65 26 -120 12 -55 25 -131 30 -170 15 -125 32 -195 47 -195 10 0 12
7 8 23 -3 12 -15 85 -26 162 -20 134 -71 381 -110 530 -10 39 -28 108 -40 155
-47 184 -110 357 -193 530 -22 47 -40 93 -40 102 2 22 -97 105 -186 158 -41
24 -114 53 -191 75 -256 74 -238 65 -331 170 -77 87 -108 114 -96 83z"/>
<path d="M1195 1650 c-3 -5 -1 -10 4 -10 6 0 10 -5 9 -11 -2 -6 7 -15 20 -20
l22 -8 -22 29 c-25 34 -25 34 -33 20z"/>
<path d="M1619 1601 c-15 -14 -52 -44 -83 -66 -31 -22 -63 -51 -72 -64 -20
-29 -11 -24 75 42 40 30 67 45 73 39 5 -5 13 -29 16 -53 7 -43 7 -42 13 26 3
39 9 78 13 88 11 24 -4 19 -35 -12z"/>
<path d="M1814 1572 c-6 -4 -14 -15 -17 -26 -6 -15 -4 -17 10 -11 10 4 55 8
101 7 81 0 100 8 63 28 -22 11 -140 13 -157 2z"/>
<path d="M400 1259 c1 -48 28 -230 35 -238 4 -3 4 10 1 29 -3 19 -10 80 -16
134 -11 101 -20 138 -20 75z"/>
<path d="M1273 1158 c10 -51 22 -118 26 -148 8 -52 9 -51 10 37 0 50 -3 94 -8
97 -5 3 -14 28 -21 56 -21 87 -27 54 -7 -42z"/>
<path d="M2411 1006 c-7 -13 -11 -32 -8 -42 3 -15 8 -11 20 18 19 43 20 48 9
48 -5 0 -14 -11 -21 -24z"/>
<path d="M1381 946 c-10 -12 -9 -14 8 -9 12 3 28 0 36 -7 12 -10 15 -9 15 4 0
9 -4 16 -9 16 -5 0 -16 2 -24 5 -7 3 -19 -1 -26 -9z"/>
<path d="M2392 890 c-7 -25 -17 -56 -23 -69 -17 -41 -1 -35 21 9 12 24 20 55
18 73 -4 31 -4 31 -16 -13z"/>
<path d="M465 896 c3 -16 12 -43 20 -60 l14 -31 -6 30 c-3 17 -12 44 -20 60
l-14 30 6 -29z"/>
<path d="M1294 776 c0 -25 4 -46 9 -46 10 0 9 62 -2 79 -5 8 -8 -3 -7 -33z"/>
<path d="M524 734 c4 -9 11 -37 17 -63 6 -25 15 -54 20 -63 5 -10 9 -29 9 -43
0 -16 4 -24 10 -20 6 4 9 14 6 23 -3 10 -14 54 -26 100 -12 45 -27 82 -32 82
-6 0 -7 -7 -4 -16z"/>
<path d="M2355 710 c2 -11 0 -22 -6 -25 -5 -4 -9 3 -9 15 0 13 -4 18 -11 14
-6 -3 -9 -15 -6 -25 3 -10 -2 -51 -9 -91 -18 -92 -18 -395 0 -418 7 -8 22 -41
35 -72 21 -53 21 -59 7 -74 -9 -8 -16 -20 -16 -25 0 -14 26 -11 40 6 9 10 34
16 84 17 l71 2 -70 5 c-57 5 -70 9 -70 23 0 9 -4 20 -8 24 -4 4 -7 15 -7 25 0
10 -9 34 -21 54 -12 19 -19 42 -16 49 3 8 0 17 -8 20 -16 6 -17 106 -1 103 6
-1 12 14 13 33 1 35 1 35 -6 5 l-8 -30 -7 27 c-9 32 0 145 14 184 7 18 8 30 2
32 -11 3 5 74 18 82 5 3 12 18 15 33 6 21 4 27 -8 27 -10 0 -15 -7 -12 -20z"/>
<path d="M1296 711 c-3 -4 -2 -28 3 -52 l9 -44 1 53 c1 51 -2 61 -13 43z"/>
<path d="M1300 608 c-5 -57 -11 -302 -7 -298 7 7 19 300 12 300 -3 0 -5 -1 -5
-2z"/>
<path d="M544 532 c4 -31 9 -69 11 -83 11 -58 6 -132 -10 -146 -4 -5 -5 -2 0
6 5 10 4 12 -3 7 -9 -5 -7 -14 5 -31 10 -12 21 -21 26 -18 11 7 9 253 -3 253
-5 0 -10 16 -10 35 0 19 -5 35 -11 35 -8 0 -10 -18 -5 -58z"/>
<path d="M1370 490 c-16 -11 -9 -13 31 -10 18 1 32 -6 42 -20 10 -15 16 -17
19 -8 6 16 -34 48 -59 48 -10 0 -25 -5 -33 -10z"/>
<path d="M1369 431 c7 -12 18 -24 26 -27 15 -6 60 14 51 23 -3 3 -12 1 -19 -6
-11 -9 -20 -6 -42 11 l-28 21 12 -22z"/>
<path d="M340 222 c0 -4 19 -27 41 -52 22 -25 36 -36 31 -25 -6 11 -19 29 -31
39 -11 10 -18 22 -16 26 3 4 -2 10 -10 14 -8 3 -15 2 -15 -2z"/>
<path d="M561 210 c-1 -8 -5 -42 -7 -75 -5 -65 -25 -95 -51 -73 -22 18 -26 1
-6 -26 22 -31 27 -32 53 -6 18 18 20 31 17 108 -1 48 -4 80 -6 72z"/>
<path d="M2390 190 c0 -5 4 -10 8 -10 5 0 17 -8 28 -17 10 -10 44 -29 74 -43
30 -14 69 -35 87 -47 18 -12 33 -21 33 -18 0 2 14 0 31 -5 26 -8 29 -7 18 6
-6 8 -14 12 -16 10 -7 -7 -153 61 -188 88 -44 34 -75 49 -75 36z"/>
<path d="M2277 168 c-3 -8 -5 -49 -4 -91 0 -57 4 -77 14 -77 10 0 13 19 13 78
0 76 -11 120 -23 90z"/>
<path d="M2730 20 c14 -11 31 -20 39 -20 8 0 3 9 -12 20 -14 11 -31 20 -39 20
-7 0 -2 -9 12 -20z"/>
</g>
</svg>
